# xmcd
#
# Track frame offsets: 
#        152
#        12273
#        26282
#        38694
#        64354
#        78554
#        90742
#        114009
#        145602
#        177332
#        211068
#
# Disc length: 3024 seconds
#
# Revision: 0
# Processed by: cddbd v1.5.2PL0 Copyright (c) Steve Scherf et al.
# Submitted via: ExactAudioCopy v0.99pb3
#
DISCID=810bce0b
DTITLE=Faustrecht - Demoniak
DYEAR=2002
DGENRE=Pagan Black Metal
TTITLE0=Prémices
TTITLE1=Gloria Noir
TTITLE2=Faustrecht kommt
TTITLE3=Licking The Angel's Face
TTITLE4=Impetigo
TTITLE5=Le Vampire Intrinsèque
TTITLE6=Totenkopf
TTITLE7=Incubation Malsaine
TTITLE8=Drei
TTITLE9=Infame Engeance (er hat die Peste)
TTITLE10=Nemeton
EXTD=
EXTT0=
EXTT1=
EXTT2=
EXTT3=
EXTT4=
EXTT5=
EXTT6=
EXTT7=
EXTT8=
EXTT9=
EXTT10=
PLAYORDER=
